<svg width="18" height="18" viewBox="0 0 18 18" fill="none" xmlns="http://www.w3.org/2000/svg">
<path d="M2.93459 4.36446C2.69878 4.36446 2.47884 4.36543 2.2589 4.3643C1.81302 4.36187 1.49338 4.06602 1.48739 3.6517C1.48124 3.2259 1.79587 2.91208 2.24724 2.90933C3.00839 2.90464 3.76953 2.90787 4.53084 2.90787C4.59833 2.90787 4.66582 2.90787 4.75791 2.90787C4.75791 2.83359 4.75791 2.77338 4.75791 2.71302C4.75791 2.3097 4.7558 1.90656 4.75855 1.50324C4.76179 1.02581 5.05748 0.72818 5.53783 0.727856C7.68499 0.725914 9.83232 0.72559 11.9795 0.72818C12.4492 0.728665 12.7455 1.02824 12.7495 1.49531C12.7529 1.89846 12.7503 2.30177 12.7503 2.70509C12.7503 2.7661 12.7503 2.82728 12.7503 2.90787C12.8364 2.90787 12.903 2.90787 12.9695 2.90787C13.7306 2.90787 14.4919 2.90529 15.2531 2.90901C15.6936 2.91127 16.0089 3.20421 16.0204 3.60962C16.0322 4.02443 15.7247 4.35297 15.3083 4.363C15.071 4.36883 14.8334 4.36397 14.5738 4.36397C14.5738 4.44942 14.5738 4.52096 14.5738 4.59266C14.5738 7.64258 14.5813 10.6925 14.5703 13.7424C14.5657 15.0164 13.9672 15.9373 12.8133 16.4842C12.4388 16.6617 12.034 16.7255 11.6208 16.7257C9.71223 16.7268 7.80362 16.7295 5.89485 16.7252C4.41836 16.7218 3.24808 15.7444 2.97991 14.2924C2.94301 14.093 2.93637 13.8857 2.93605 13.6821C2.93346 10.655 2.93427 7.62769 2.93427 4.60059V4.36462L2.93459 4.36446ZM4.3915 4.37287V4.54669C4.3915 7.60665 4.39117 10.6668 4.39166 13.7267C4.39166 14.6484 5.00828 15.2686 5.92576 15.2691C7.8109 15.2701 9.69605 15.2701 11.5812 15.2691C12.5001 15.2686 13.1166 14.6499 13.1167 13.7282C13.1174 10.6682 13.1169 7.60811 13.1169 4.54815V4.37271H4.3915V4.37287ZM6.2153 2.89606H11.2908V2.1969H6.2153V2.89606Z" fill="black"/>
<path d="M9.84491 9.63701C9.84491 8.37043 9.84281 7.10385 9.84604 5.83743C9.84734 5.34397 10.2685 5.00362 10.7381 5.11399C11.0228 5.18084 11.2021 5.36631 11.2753 5.6484C11.295 5.7243 11.3007 5.80571 11.3007 5.88453C11.302 8.38354 11.3028 10.8825 11.301 13.3816C11.3007 13.9368 10.8496 14.2971 10.3558 14.1446C10.0427 14.0479 9.84588 13.7731 9.8454 13.4196C9.84394 12.1587 9.84491 10.8979 9.84491 9.63701Z" fill="black"/>
<path d="M7.66335 9.64388C7.66335 10.9037 7.66545 12.1634 7.66238 13.4232C7.66108 13.9526 7.18138 14.3043 6.69796 14.1384C6.39871 14.0356 6.21162 13.7644 6.20741 13.4142C6.20337 13.0851 6.20644 12.756 6.20644 12.4268C6.20644 10.2534 6.20612 8.07984 6.20676 5.90645C6.20676 5.49036 6.41732 5.19354 6.76399 5.11359C7.24029 5.0037 7.66092 5.34356 7.66238 5.84754C7.66529 6.86327 7.66335 7.87915 7.66335 8.89488C7.66335 9.1446 7.66335 9.39432 7.66335 9.64388Z" fill="black"/>
</svg>
