<?xml version="1.0" encoding="UTF-8"?>
<svg id="Layer_1" data-name="Layer 1" xmlns="http://www.w3.org/2000/svg" viewBox="0 0 500 500">
  <defs>
    <style>
      .cls-1 {
        fill: #231f20;
      }
    </style>
  </defs>
  <path class="cls-1" d="m12.25,218.54c55.44,0,110.88.02,166.32-.05,2.98,0,5.16.73,7.26,2.93,6.68,6.99,13.6,13.77,21.03,21.24v-51.76h-27.13v-83.11h56.51c0-8.45-1.39-16.66.27-24.19,4.66-21.16,25.14-33.91,47.41-31.03,18.55,2.4,33.88,10.54,45.97,24.81.58.68,1.21,1.31,1.43,1.54,3.79-3.42,7.3-6.83,11.05-9.95,15.02-12.47,32.18-18.96,51.72-15.97,24.2,3.7,39.12,26.64,33.74,50.52-.27,1.18-.56,2.36-.98,4.14h58.17v82.98h-27.17v166.51h-5.84c-55.13,0-110.26.02-165.4-.05-2.97,0-5.17.69-7.28,2.91-5.39,5.68-11.05,11.09-16.35,16.37,4.13,6.87,9.62,8.77,17.2,8.69,38.5-.42,77-.19,115.5-.19h5.28v83.16c-1.8,0-3.46,0-5.11,0-59.6,0-119.2-.03-178.8.07-3.46,0-6.06-.95-8.68-3.18-40.95-34.8-81.98-69.49-122.93-104.29-2.85-2.42-5.63-3.61-9.47-3.57-21.25.19-42.5.09-63.75.09v-138.61Zm249.93,118.68c-.28-.35-.54-.74-.86-1.07-29.28-29.29-58.54-58.61-87.94-87.78-1.38-1.37-4.05-2.02-6.12-2.03-40.8-.12-81.6-.09-122.41-.09h-4.59v83.17c15.2,0,30.12.14,45.02-.09,4.26-.06,7.47,1.08,10.76,3.87,40.79,34.74,81.71,69.31,122.53,104,2.62,2.23,5.23,3.18,8.68,3.17,46.96-.1,93.92-.07,140.88-.07,1.65,0,3.31,0,5.14,0v-27.72c-1.93,0-3.6,0-5.26,0-34.64,0-69.29-.04-103.93.07-3.32.01-5.67-.86-8.06-3.26-26.8-26.98-53.72-53.84-80.61-80.74-1.06-1.06-2.07-2.18-2.46-2.59,6.59-6.59,12.97-12.98,19.97-19.99,16.55,16.57,33.46,33.5,50.19,50.25,6.23-6.25,12.51-12.55,19.06-19.11Zm111.69-146.18v138.03h55.82v-138.03h-55.82Zm-83.6.1h-55.06c-.11.76-.24,1.2-.24,1.65-.01,25.07-.07,50.14.08,75.21.01,1.7,1.15,3.77,2.4,5.04,16.55,16.72,33.22,33.34,49.87,49.96.78.78,1.73,1.4,2.95,2.38v-134.23Zm28.12-55.67v193.63h27.08v-193.63h-27.08Zm139.03.22h-83.51v27.18h83.51v-27.18Zm-167.24.01h-82.59v27.15h82.59v-27.15Zm25.06-28.08c-4.63-16.45-24.22-29.66-40.3-27.61-6.99.89-12.34,6.97-12.26,13.93.08,7.15,5.73,13.46,13.02,13.61,13.05.28,26.12.08,39.54.08Zm33.34-.02c13.56,0,26.76.24,39.95-.1,7.24-.18,12.81-6.75,12.73-13.87-.08-7.14-5.81-13.15-13.03-13.68-16.44-1.19-34.34,11.04-39.65,27.65Z"/>
</svg>