<?xml version="1.0" encoding="UTF-8"?>
<svg id="Layer_1" data-name="Layer 1" xmlns="http://www.w3.org/2000/svg" viewBox="0 0 500 500">
  <defs>
    <style>
      .cls-1 {
        fill: #fff;
      }
    </style>
  </defs>
  <path class="cls-1" d="m435.69,376.75c-8.11-19.47-21.42-33.42-41.21-41.05-6-2.11-5.84-2.11-4.87-7.95.81-6.33,2.92-12.33,3.25-18.82.16-.16.49-.32.49-.49,3.89-19.15,7.79-38.13,11.68-57.28,6.49-32.45,12.98-65.06,19.8-97.52,2.6-12.49-4.06-21.26-16.71-21.26-5.35,0-10.71,0-16.06.16h-232.19c-13.14,0-26.29-.16-39.27-.16-2.27,0-3.89-.16-4.54-2.76-3.08-16.88-6.65-33.59-9.57-50.46-1.62-8.92-4.06-17.04-13.79-20.28h-52.57c-.32.16-.49.49-.65.49-9.09,2.6-14.28,9.41-13.14,17.69,1.3,8.76,8.11,14.28,17.69,14.28s18.17.16,27.1-.16c3.57-.16,4.71,1.3,5.35,4.22,4.38,24.83,10.38,49.33,14.77,74.31,4.54,25.64,10.87,51.11,15.74,76.91,5.19,28.07,11.36,55.98,17.04,83.89.49,1.95.16,3.41-2.11,4.06-14.44,4.22-25.8,12.98-34.72,24.82-12.33,15.9-16.55,34.24-13.63,53.54,2.92,19.31,12.66,35.37,28.88,46.73,16.87,11.68,35.37,16.55,55.82,11.68,4.87-.32,9.41-1.95,13.79-4.06,39.1-17.52,54.19-61.98,33.91-99.95q-2.27-4.22,2.76-4.22c20.61,0,41.38,0,61.98-.16h38.94c-24.5,39.91-7.3,90.54,36.35,106.12,9.57,3.89,19.63,4.87,29.85,3.89,8.44-.81,16.71-2.6,24.34-7.14.97-.32,1.95-.65,2.92-1.14,6.81-4.38,13.47-8.92,18.82-15.25,6.81-8.11,12.66-16.71,15.58-27.1,1.14-3.89,1.14-7.95,3.08-11.52v-22.72c-3.73-2.92-3.25-7.63-4.87-11.36Zm-278.27,61.66c-.49.16-.65.49-.97.65-7.63,1.95-15.41,2.6-23.04.16-15.09-4.87-24.5-14.93-27.75-30.5-4.38-21.09,10.71-40.89,30.34-44.46,4.06-.81,8.27-.32,12.49-.49,7.79,1.78,15.41,4.22,21.58,9.73,7.46,6.65,11.68,15.09,12.33,24.99.97,18.98-7.3,32.45-24.99,39.92Zm21.09-107.58c-6.17-.16-12.17-.16-18.17,0-2.27,0-3.41-.16-4.06-3.08-1.62-9.9-3.89-19.63-6-29.37-1.78-8.92-3.41-17.85-5.19-26.77-3.73-18.5-7.46-36.99-11.2-55.49-3.08-15.25-6.17-30.34-9.25-45.43-1.14-5.35-.97-5.84,4.38-5.84,10.22-.16,20.44-.16,30.83-.32,1.3.16,2.6.32,3.89.32h96.38c1.3,0,2.76-.16,4.06-.32,6.65.16,13.47.32,20.12.32h67.34c1.46,0,3.08-.16,4.71-.32,6.82.16,13.79.16,20.61.16h8.44c3.08,0,3.73.65,3.41,3.73-.97,7.46-2.92,14.77-4.38,22.07-3.57,17.36-7.95,34.72-10.87,52.41-3.57,22.39-9.25,44.46-13.47,66.69-.97,5.35-2.11,10.71-2.76,16.23-.49,3.73-1.62,5.68-5.84,5.03-1.46-.32-3.25,0-4.87,0h-168.1Zm220.02,97.03c-4.71,4.38-9.74,8.27-16.06,10.55-10.38,3.73-20.44,2.92-30.34-1.78-1.62-.81-3.41-1.3-5.19-1.95-1.46-2.76-4.06-4.38-6-6.49-8.92-9.41-11.84-20.28-9.73-32.94,1.62-10.38,6.81-18.34,15.41-24.18,8.11-7.3,18.01-7.95,28.07-6.98,6.81.65,12.98,3.73,18.82,7.3,5.19,5.03,9.9,10.22,12.17,17.2,5.03,14.44,2.11,27.42-7.14,39.27Z"/>
</svg>