<?xml version="1.0" encoding="UTF-8"?>
<svg id="Layer_1" data-name="Layer 1" xmlns="http://www.w3.org/2000/svg" viewBox="0 0 500 500">
  <defs>
    <style>
      .cls-1 {
        fill: #231f20;
      }
    </style>
  </defs>
  <path class="cls-1" d="m434.5,87.55c-22.3-.11-44.6-.03-66.89-.03h-6.42v-5.94c0-11.81.08-23.63-.03-35.44-.12-13.68-8.8-22.46-22.56-22.47-62.9-.07-125.8-.07-188.7,0-14.07.01-22.73,8.73-22.83,22.72-.08,11.81-.02,23.62-.02,35.44v5.71h-6.65c-22.3,0-44.6-.1-66.89.04-13.22.08-22.44,9.27-22.26,21.75.17,12.14,9.54,20.8,22.6,20.88,6.44.04,12.88,0,19.79,0v6.91c0,88.68-.02,177.36.05,266.03,0,5.97.2,12.04,1.28,17.88,7.85,42.54,42.14,71.17,85.39,71.27,55.91.13,111.82.05,167.74.02,12.1,0,23.96-1.88,34.93-7.08,33.81-16.02,51.34-42.99,51.47-80.32.32-89.34.1-178.69.11-268.03v-6.7c7.6,0,14.56.14,21.51-.03,12.2-.3,21.21-9.92,20.86-22.07-.34-11.88-9.57-20.46-22.48-20.52Zm-264.75-20.86h148.68v20.48h-148.68v-20.48Zm202.18,68.88c0,89.64.01,179.28,0,268.92,0,27-18.07,45.12-44.98,45.14-55.22.03-110.45.03-165.67,0-26.87-.01-44.93-18.18-44.94-45.18-.02-89.64,0-179.28,0-268.92v-5.25h255.61v5.3Z"/>
  <path class="cls-1" d="m299.31,417.62c11.53-1.04,19.4-10.3,19.42-23.17.06-36.6.02-73.21.02-109.81,0-36.44-.04-72.87.03-109.31.02-8.99-2.88-16.39-10.9-21-14.69-8.45-31.78,2.25-31.79,19.91-.04,69.05-.02,138.09-.02,207.14,0,5.32-.16,10.66.06,15.97.5,12.16,11.12,21.36,23.17,20.27Z"/>
  <path class="cls-1" d="m184.4,416.66c14.11,4.45,27.7-5.79,27.74-21.13.08-36.9.03-73.81.03-110.71,0-8.64,0-17.29,0-25.93,0-28.43.06-56.85-.03-85.28-.05-14.75-12.41-24.7-26.35-21.46-10.15,2.36-16.29,11.05-16.29,23.26-.02,65.33,0,130.66,0,195.99,0,8.15-.13,16.29.04,24.44.21,10.11,5.98,18.03,14.87,20.83Z"/>
</svg>