<?xml version="1.0" encoding="UTF-8"?>
<svg id="Layer_1" data-name="Layer 1" xmlns="http://www.w3.org/2000/svg" viewBox="0 0 500 500">
  <defs>
    <style>
      .cls-1 {
        fill: #231f20;
      }
    </style>
  </defs>
  <path class="cls-1" d="m398.45,381.28c-7.73-18.56-20.41-31.86-39.28-39.12-5.72-2.01-5.57-2.01-4.64-7.58.77-6.03,2.78-11.75,3.09-17.94.15-.15.46-.31.46-.46,3.71-18.25,7.42-36.34,11.13-54.59,6.19-30.93,12.37-62.01,18.87-92.94,2.47-11.91-3.87-20.26-15.93-20.26-5.1,0-10.21,0-15.31.15h-221.29c-12.53-.15-25.05-.15-37.42-.15-2.17,0-3.71-.15-4.33-2.63-2.94-16.08-6.34-32.01-9.12-48.09-1.55-8.51-3.87-16.24-13.14-19.33H21.44c-.31.15-.46.46-.62.46-8.66,2.47-13.61,8.97-12.53,16.86,1.24,8.35,7.73,13.61,16.86,13.61s17.32.15,25.83-.15c3.4-.15,4.48,1.24,5.1,4.02,4.18,23.66,9.9,47.01,14.07,70.83,4.33,24.43,10.36,48.71,15,73.3,4.95,26.75,10.82,53.35,16.24,79.95.46,1.86.15,3.25-2.01,3.87-13.76,4.02-24.59,12.37-33.09,23.66-11.75,15.15-15.77,32.63-12.99,51.03,2.78,18.4,12.06,33.71,27.53,44.54,16.08,11.13,33.71,15.77,53.2,11.13,4.64-.31,8.97-1.86,13.14-3.87,37.27-16.7,51.65-59.07,32.32-95.26q-2.17-4.02,2.63-4.02c19.64,0,39.43,0,59.07-.15h37.11c-23.35,38.04-6.96,86.29,34.64,101.13,9.12,3.71,18.71,4.64,28.45,3.71,8.04-.77,15.93-2.47,23.2-6.8.93-.31,1.86-.62,2.78-1.08,6.49-4.17,12.84-8.51,17.94-14.54,6.49-7.73,12.06-15.93,14.84-25.82,1.08-3.71,1.08-7.58,2.94-10.98v-21.65c-3.56-2.78-3.09-7.27-4.64-10.82Zm-265.21,58.76c-.46.15-.62.46-.93.62-7.27,1.86-14.69,2.47-21.96.15-14.38-4.64-23.35-14.23-26.44-29.07-4.17-20.1,10.21-38.97,28.92-42.37,3.87-.77,7.89-.31,11.91-.46,7.42,1.7,14.69,4.02,20.57,9.28,7.11,6.34,11.13,14.23,11.75,23.82.93,18.09-6.96,30.93-23.82,38.04Zm20.1-102.53c-5.88-.15-11.6-.15-17.32,0-2.17,0-3.25-.15-3.87-2.94-1.55-9.43-3.71-18.71-5.72-27.99-1.7-8.51-3.25-17.01-4.95-25.52-3.56-17.63-7.11-35.26-10.67-52.89-2.94-14.54-5.88-28.92-8.81-43.3-1.08-5.26-.93-5.57,4.17-5.57,9.74-.15,19.48-.15,29.38-.31,1.24.15,2.47.31,3.71.31h91.86c1.24,0,2.63-.15,3.87-.31,6.34.15,12.84.31,19.18.31h64.18c1.39,0,2.94-.15,4.48-.31,6.5.15,13.14.15,19.64.15h8.04c2.94,0,3.56.62,3.25,3.56-.93,7.11-2.78,14.07-4.17,21.03-3.4,16.55-7.58,33.09-10.36,49.95-3.4,21.34-8.81,42.37-12.83,63.56-.93,5.1-2.01,10.21-2.63,15.46-.46,3.56-1.55,5.41-5.57,4.79-1.39-.31-3.09,0-4.64,0h-160.21Zm209.69,92.48c-4.49,4.17-9.28,7.89-15.31,10.05-9.9,3.56-19.48,2.78-28.92-1.7-1.55-.77-3.25-1.24-4.95-1.86-1.39-2.63-3.87-4.18-5.72-6.19-8.51-8.97-11.29-19.33-9.28-31.39,1.55-9.9,6.49-17.47,14.69-23.04,7.73-6.96,17.16-7.58,26.75-6.65,6.49.62,12.37,3.56,17.94,6.96,4.95,4.79,9.43,9.74,11.6,16.39,4.79,13.76,2.01,26.13-6.8,37.42Z"/>
  <polygon class="cls-1" points="491.85 99.49 435.24 99.49 435.24 42.87 409.51 42.87 409.51 99.49 352.89 99.49 352.89 125.22 409.51 125.22 409.51 181.83 435.24 181.83 435.24 125.22 491.85 125.22 491.85 99.49"/>
</svg>