<?xml version="1.0" encoding="UTF-8"?>
<svg id="Layer_1" data-name="Layer 1" xmlns="http://www.w3.org/2000/svg" viewBox="0 0 500 500">
  <defs>
    <style>
      .cls-1 {
        fill: #231f20;
      }
    </style>
  </defs>
  <polygon class="cls-1" points="330.83 152.02 282.78 152.02 299.11 178.4 330.83 152.02"/>
  <path class="cls-1" d="m356.58,343.59c-5.65-1.88-5.34-1.88-4.4-7.54.63-5.97,2.51-11.62,2.83-17.59.31-.31.63-.31.63-.63,3.77-17.9,7.22-36.11,10.99-54.01,5.65-27.95,11.31-55.9,16.96-84.16l-37.37,31.09c-3.14,15.07-6.91,29.83-9.11,45.22-3.45,21.35-8.79,42.08-12.87,63.12-.94,5.02-1.88,10.05-2.51,15.07-.63,3.45-1.57,5.34-5.65,4.71-1.26,0-2.83,0-4.4.31h-71.6c-29.21-.31-58.1-.31-86.99-.31h-17.27c-1.88,0-3.14,0-3.77-2.83-1.57-9.11-3.77-18.53-5.65-27.64-1.57-8.48-3.14-16.96-4.71-25.44-3.45-17.27-7.22-34.86-10.68-52.13-2.83-14.45-5.65-28.58-8.79-43.03-.94-5.02-.94-5.34,4.4-5.34,9.42,0,19.16-.31,28.89-.31,1.26,0,2.51.31,3.77.31h90.76c1.26,0,2.51-.31,3.77-.31h2.83l-18.53-30.15h-119.65c-2.2,0-3.77-.31-4.08-2.83-3.14-15.7-6.28-31.72-9.11-47.42-1.57-8.48-4.08-16.02-13.19-19.16H22.43s-.31.31-.63.31c-8.48,2.51-13.19,9.11-12.25,16.64,1.26,8.48,7.54,13.51,16.65,13.51,8.48,0,17.27.31,25.75,0,3.14-.31,4.4,1.26,4.71,4.08,4.4,23.24,10.05,46.48,14.13,69.72,4.4,24.49,10.05,48.36,14.76,72.54,5.02,26.69,10.68,52.76,16.01,79.14.63,1.88.31,3.45-1.88,4.08-13.5,3.77-24.18,12.25-32.97,23.24-11.31,15.07-15.39,32.35-12.56,50.56,2.83,18.22,11.93,33.29,27.32,43.97,15.7,10.99,33.29,15.7,52.44,10.99,4.71-.31,8.79-1.88,12.87-3.77,37.06-16.65,51.19-58.41,32.03-94.21q-1.88-4.08,2.83-4.08h94.84c-22.92,37.69-6.59,85.42,34.55,99.87,8.79,3.77,18.53,4.71,27.95,3.77,8.16-.63,16.01-2.51,22.92-6.59.94-.31,1.88-.63,2.83-1.26,6.6-4.08,12.88-8.48,17.9-14.44,6.28-7.54,11.93-15.7,14.76-25.44.94-3.46.94-7.54,2.83-10.68v-21.35c-3.45-2.83-3.14-7.22-4.71-10.99-7.54-18.21-20.1-31.4-38.94-38.63Zm-223.6,96.73c-.31.31-.31.63-.63.63-7.22,1.88-14.45,2.51-21.67.31-14.45-4.71-23.24-14.13-26.38-28.89-4.08-19.78,10.36-38.63,28.58-42.08,3.77-.63,7.85-.31,11.93-.31,7.22,1.88,14.44,4.08,20.41,9.42,6.91,6.28,10.99,14.13,11.62,23.24.94,17.9-6.91,30.78-23.87,37.69Zm227.37-9.74c-4.4,4.08-9.11,7.85-15.08,9.74-9.74,3.45-19.16,2.83-28.58-1.57-1.57-.63-3.14-1.26-4.71-1.88-1.57-2.51-3.77-4.08-5.97-5.97-8.17-8.79-10.99-19.16-9.11-31.09,1.57-9.74,6.6-17.59,14.76-22.92,7.54-6.91,16.96-7.54,26.38-6.59,6.28.63,12.25,3.77,17.9,6.91,4.71,4.71,9.11,9.74,11.31,16.33,4.71,13.5,1.88,25.75-6.91,37.06Z"/>
  <polygon class="cls-1" points="490.56 74.98 470.44 50.88 296.28 196.18 227.12 84.89 200.44 101.45 288.67 243.44 490.56 74.98"/>
</svg>