<?xml version="1.0" encoding="UTF-8"?>
<svg id="Layer_1" data-name="Layer 1" xmlns="http://www.w3.org/2000/svg" viewBox="0 0 500 201.83">
  <path fill="#fff" d="m100.03,85.56l3.92-62.52h-49.08c-8.29,0-15.37,1.64-21.23,4.93-5.86,3.29-10.36,7.69-13.5,13.22-3.14,5.53-4.71,11.65-4.71,18.38v87.51c0,6.72,1.57,12.85,4.71,18.38,3.14,5.53,7.64,9.94,13.5,13.22,5.86,3.29,12.94,4.93,21.23,4.93h49.08v-75.07l-50.2.11,9.75,22.18,7.62-.34v25.99h-.67c-7.99,0-13.63-1.42-16.92-4.26-3.36-2.99-5.08-9.3-5.15-18.94v-63.75c0-4.03.15-7.28.45-9.75.3-2.47,1.21-4.35,2.75-5.66,1.53-1.31,3.94-2.19,7.23-2.63,3.29-.45,7.54-.67,12.77-.67h2.24v32.83l26.22,1.9Z"/>
  <path fill="#fff" d="m181.26,156.6h-1.57c-1.79.08-3.47.11-5.04.11-8.22,0-13.75-.82-16.58-2.46-3.14-1.87-4.71-6.95-4.71-15.24V23.04h-32.83v124.03c0,6.72,1.55,12.85,4.65,18.38,3.1,5.53,7.6,9.94,13.5,13.22,5.9,3.29,13,4.93,21.29,4.93h54.12V23.04h-32.83v133.56Z"/>
  <path fill="#fff" d="m312.8,85.56l3.92-62.52h-49.08c-8.29,0-15.37,1.64-21.23,4.93-5.86,3.29-10.36,7.69-13.5,13.22-3.14,5.53-4.71,11.65-4.71,18.38v87.51c0,6.72,1.57,12.85,4.71,18.38,3.14,5.53,7.64,9.94,13.5,13.22,5.86,3.29,12.94,4.93,21.23,4.93h49.08v-75.07l-50.2.11,9.75,22.18,7.62-.34v25.99h-.67c-7.99,0-13.63-1.42-16.92-4.26-3.36-2.99-5.08-9.3-5.15-18.94v-63.75c0-4.03.15-7.28.45-9.75.3-2.47,1.21-4.35,2.75-5.66,1.53-1.31,3.94-2.19,7.23-2.63,3.29-.45,7.54-.67,12.77-.67h2.24v32.83l26.22,1.9Z"/>
  <path fill="#fff" d="m394.03,156.6h-1.57c-1.79.08-3.47.11-5.04.11-8.22,0-13.75-.82-16.58-2.46-3.14-1.87-4.71-6.95-4.71-15.24V23.04h-32.83v124.03c0,6.72,1.55,12.85,4.65,18.38,3.1,5.53,7.6,9.94,13.5,13.22,5.9,3.29,13,4.93,21.29,4.93h54.12V23.04h-32.83v133.56Z"/>
  <polygon fill="#fff" points="478.4 134.63 480.42 23.04 447.48 23.04 449.38 134.63 478.4 134.63"/>
  <polygon fill="#fff" points="463.95 145.17 443.22 165.78 463.95 186.51 484.56 165.78 463.95 145.17"/>
</svg>